<?xml version="1.0" encoding="UTF-8"?>
<svg xmlns="http://www.w3.org/2000/svg" id="Capa_1" width="9.74mm" height="11.76mm" viewBox="0 0 27.6 33.35">
  <defs>
    <style>.cls-1{fill:#2b2b2b;}</style>
  </defs>
  <path class="cls-1" d="m22.73,1.77c-1.36-.63-2.84-1.06-4.44-1.3-1.6-.23-3.1-.35-4.49-.35-1.57,0-3.15.02-4.72.07-1.57.05-3.15.07-4.72.07H.1v1.25h4.26v9.03l3.05-1.45c2.24-1.06,3.66-3.32,3.66-5.8V.92c.25-.03.52-.06.83-.09.31-.03.63-.05.97-.05,2.68,0,4.54.71,5.55,2.13,1.02,1.42,1.53,3.47,1.53,6.15,0,2.84-.6,5.1-1.63,6.41-.77.99-1.18,1.56-2.01,1.98-.11.04-11.96,5.68-11.96,5.68h0s-.02,0-.02,0v1.76h.02s0,7.07,0,7.07H.1v1.24h15.21v-1.24h-4.24v-10.47l10.94-5.52s1.35-.65,1.93-1.03c1.2-.79,2.1-1.71,2.68-2.78.59-1.06.88-2.2.88-3.4,0-1.79-.46-3.25-1.37-4.37-.91-1.13-2.04-2.01-3.4-2.64Z"></path>
</svg>
