<?xml version="1.0" encoding="UTF-8"?>
<svg xmlns="http://www.w3.org/2000/svg" width="392" height="60" viewBox="0 0 392 60" fill="none">
  <path d="M289.955 48.7664C288.92 50.7924 287.629 52.5642 286.074 54.0783C284.523 55.5924 282.738 56.7688 280.722 57.6039C280.539 57.6801 279.383 57.8036 277.894 57.8036H260.547V4.44805H278.096C279.273 4.44805 279.994 4.73126 280.316 4.90554C282.167 5.90402 283.678 7.08042 284.849 8.43111C286.019 9.78179 286.93 11.176 287.585 12.6066C288.24 14.0372 288.701 15.2136 288.975 16.1322H290.036V2.26953H285.24H241.053V4.45168H248.706V57.8072H241.053V59.9857H241.192V59.9966H293.387V42.2417H292.326C291.781 44.5654 290.991 46.7403 289.959 48.7664H289.955Z" fill="#E7E3E1"></path>
  <path d="M196.155 40.862L174.085 9.54941C170.87 4.98905 165.613 2.26953 160.005 2.26953H149.652V4.44805H156.757V57.8145H149.747V59.9966H166.03V57.8145H158.955V8.43837L195.42 59.993H197.626V42.7645L196.199 40.862H196.159H196.155Z" fill="#E7E3E1"></path>
  <path d="M205.067 2.26562H188.788V4.44777H205.067V2.26926V2.26562Z" fill="#E7E3E1"></path>
  <path d="M276.262 17.7402H276.259V42.9929H278.454V17.7402H277.404H276.262Z" fill="#E7E3E1"></path>
  <path d="M86.0986 2.26953V4.45168H93.6125V57.8145H86.0986V59.9966H112.939V57.8145H105.458V4.45168H112.939V2.26953H86.0986Z" fill="#E7E3E1"></path>
  <path d="M384.523 57.8142L359.252 0H357.046L351.954 12.3123L353.212 15.2061L362.266 35.9964H354.324C346.957 35.9964 340.314 40.4006 337.493 47.1576L333.045 57.8178H325.842V58.8635V60H342.124V57.8178H335.426L339.282 48.5809C341.912 42.285 348.102 38.1785 354.968 38.1785H363.133L371.697 57.8178H364.454V60H392V57.8178H384.519L384.523 57.8142Z" fill="#E7E3E1"></path>
  <path d="M39.9401 4.51041C37.5439 3.403 34.9283 2.64415 32.0969 2.24112C29.2655 1.83446 26.6243 1.63477 24.1733 1.63477C21.3967 1.63477 18.6202 1.67471 15.8399 1.75458C13.0634 1.83446 10.2868 1.8744 7.51025 1.8744H0V4.05655H7.51391V19.8798L12.8951 17.3382C16.8423 15.472 19.3591 11.518 19.3591 7.17909V3.01086C19.7944 2.9564 20.2846 2.90194 20.8297 2.84747C21.3748 2.79301 21.9454 2.76759 22.5454 2.76759C27.2827 2.76759 30.5495 4.01298 32.3457 6.49649C34.1418 8.98363 35.0417 12.5782 35.0417 17.2802C35.0417 22.2544 33.9809 26.2084 32.1737 28.5177C30.8202 30.246 30.0922 31.2553 28.6289 31.9851C28.4351 32.0578 7.51757 41.9337 7.51757 41.9337L7.4883 41.9482V45.0308L7.51757 45.0163V57.423H0V59.6051H26.8438V57.423H19.3591V39.0871L38.6633 29.4181H38.6048C39.8852 28.8808 41.0412 28.2853 42.0655 27.6208C44.1872 26.2411 45.7675 24.6218 46.8028 22.7555C47.8381 20.8892 48.3539 18.9031 48.3539 16.7972C48.3539 13.6638 47.5491 11.1077 45.9431 9.13613C44.3372 7.16457 42.3362 5.62145 39.9401 4.51404V4.51041Z" fill="#E7E3E1"></path>
</svg>
