<?xml version="1.0" encoding="UTF-8"?>
<svg xmlns="http://www.w3.org/2000/svg" width="392" height="60" viewBox="0 0 392 60" fill="none">
  <path d="M289.955 48.7661C288.92 50.7921 287.628 52.564 286.074 54.0781C284.523 55.5921 282.737 56.7685 280.722 57.6036C280.539 57.6799 279.383 57.8033 277.894 57.8033H260.547V4.4478H278.095C279.273 4.4478 279.994 4.73101 280.316 4.90529C282.167 5.90378 283.678 7.08018 284.848 8.43086C286.019 9.78154 286.93 11.1758 287.584 12.6064C288.239 14.0369 288.7 15.2133 288.975 16.1319H290.035V2.26929H285.24H241.052V4.45144H248.705V57.807H241.052V59.9855H241.191V59.9964H293.386V42.2414H292.326C291.78 44.5652 290.99 46.7401 289.959 48.7661H289.955Z" fill="#E7E3E1"></path>
  <path d="M196.155 40.8617L174.086 9.54917C170.87 4.9888 165.613 2.26929 160.005 2.26929H149.653V4.4478H156.757V57.8142H149.748V59.9964H166.03V57.8142H158.955V8.43812L195.42 59.9927H197.626V42.7643L196.199 40.8617H196.159H196.155Z" fill="#E7E3E1"></path>
  <path d="M205.067 2.26569H188.788V4.44783H205.067V2.26932V2.26569Z" fill="#E7E3E1"></path>
  <path d="M276.262 17.7404H276.259V42.993H278.454V17.7404H277.404H276.262Z" fill="#E7E3E1"></path>
  <path d="M86.099 2.26929V4.45144H93.6129V57.8142H86.099V59.9964H112.939V57.8142H105.458V4.45144H112.939V2.26929H86.099Z" fill="#E7E3E1"></path>
  <path d="M384.523 57.8142L359.252 0H357.046L351.954 12.3123L353.212 15.2061L362.266 35.9964H354.324C346.957 35.9964 340.314 40.4006 337.493 47.1576L333.045 57.8178H325.842V58.8635V60H342.124V57.8178H335.426L339.282 48.5809C341.912 42.285 348.102 38.1785 354.968 38.1785H363.133L371.697 57.8178H364.454V60H392V57.8178H384.519L384.523 57.8142Z" fill="#E7E3E1"></path>
  <path d="M39.9401 4.50954C37.5439 3.40213 34.9283 2.64328 32.0969 2.24025C29.2655 1.83359 26.6243 1.6339 24.1733 1.6339C21.3967 1.6339 18.6202 1.67384 15.8399 1.75371C13.0634 1.83359 10.2868 1.87353 7.51025 1.87353H0V4.05568H7.51391V19.879L12.8951 17.3374C16.8423 15.4711 19.3591 11.5171 19.3591 7.17822V3.00999C19.7944 2.95553 20.2846 2.90107 20.8297 2.8466C21.3748 2.79214 21.9454 2.76672 22.5454 2.76672C27.2827 2.76672 30.5495 4.01211 32.3457 6.49562C34.1418 8.98276 35.0417 12.5773 35.0417 17.2793C35.0417 22.2536 33.9809 26.2076 32.1737 28.5168C30.8202 30.2451 30.0922 31.2545 28.6289 31.9843C28.4351 32.0569 7.51757 41.9328 7.51757 41.9328L7.4883 41.9474V45.03L7.51757 45.0154V57.4221H0V59.6042H26.8438V57.4221H19.3591V39.0862L38.6633 29.4173H38.6048C39.8852 28.8799 41.0412 28.2844 42.0655 27.62C44.1872 26.2402 45.7675 24.6209 46.8028 22.7546C47.8381 20.8884 48.3539 18.9023 48.3539 16.7964C48.3539 13.6629 47.5491 11.1068 45.9431 9.13526C44.3372 7.1637 42.3362 5.62058 39.9401 4.51317V4.50954Z" fill="#E7E3E1"></path>
</svg>
