<?xml version="1.0" encoding="UTF-8"?>
<svg xmlns="http://www.w3.org/2000/svg" width="89" height="108" viewBox="0 0 89 108" fill="none">
  <g clip-path="url(#clip0_248_532)">
    <path d="M73.5062 5.3692C69.0887 3.31369 64.2814 1.91072 59.0843 1.12767C53.8872 0.377244 49.015 -0.0142822 44.5 -0.0142822C39.4004 -0.0142822 34.2682 0.0509721 29.1686 0.214108C24.069 0.377244 18.9369 0.442498 13.8372 0.442498H0V4.52089H13.8372V33.9832L23.7442 29.2523C31.0201 25.7938 35.6325 18.4201 35.6325 10.3285V2.59589C36.4445 2.49801 37.3215 2.40013 38.3285 2.30225C39.3354 2.20437 40.3748 2.13911 41.4792 2.13911C50.1843 2.13911 56.2259 4.45564 59.5066 9.0887C62.8197 13.7218 64.4763 20.4103 64.4763 29.1544C64.4763 38.4205 62.5274 45.7943 59.1817 50.0684C56.6807 53.2985 55.3489 55.1583 52.6529 56.5286C52.2956 56.6591 13.8047 75.0608 13.8047 75.0608H13.7398V80.8032H13.8047V103.871H0V107.916H49.4047V103.871H35.6325V69.71L71.1675 51.6998H71.0701C73.4088 50.6883 75.5526 49.579 77.4365 48.3392C81.3343 45.7616 84.2577 42.7599 86.1416 39.2688C88.058 35.8104 89 32.0909 89 28.1756C89 22.3353 87.5058 17.5718 84.55 13.9175C81.5942 10.2307 77.9237 7.35946 73.5062 5.30395V5.3692Z" fill="#E7E3E1"></path>
  </g>
  <defs>
    <clipPath id="clip0_248_532">
      <rect width="89" height="108" fill="white"></rect>
    </clipPath>
  </defs>
</svg>
